<svg xmlns="http://www.w3.org/2000/svg" xmlns:xlink="http://www.w3.org/1999/xlink" viewBox="0 0 834.15 200.5"><defs><style>.cls-1{fill:#1e3570;}.cls-2{fill:#1482b4;}.cls-3{fill:url(#Degradado_sin_nombre_70);}.cls-4{fill:url(#Degradado_sin_nombre_77);}.cls-5{fill:url(#Degradado_sin_nombre_166);}.cls-6{fill:url(#Degradado_sin_nombre_166-2);}.cls-7{fill:url(#Degradado_sin_nombre_166-3);}.cls-8{fill:url(#Degradado_sin_nombre_70-2);}.cls-9{fill:url(#Degradado_sin_nombre_70-3);}.cls-10{fill:url(#Degradado_sin_nombre_70-4);}.cls-11{fill:url(#Degradado_sin_nombre_70-5);}.cls-12{fill:url(#Degradado_sin_nombre_70-6);}.cls-13{fill:url(#Degradado_sin_nombre_70-7);}.cls-14{fill:#8fc032;}.cls-15{fill:#fff;}.cls-16{fill:none;stroke:#569d97;stroke-miterlimit:10;stroke-width:2px;}</style><linearGradient id="Degradado_sin_nombre_70" x1="53.67" y1="23.95" x2="143.26" y2="179.12" gradientUnits="userSpaceOnUse"><stop offset="0.42" stop-color="#60c1d4"/><stop offset="0.48" stop-color="#4faccb"/><stop offset="0.57" stop-color="#3e98c3"/><stop offset="0.68" stop-color="#328abd"/><stop offset="0.8" stop-color="#2b82b9"/><stop offset="1" stop-color="#297fb8"/></linearGradient><linearGradient id="Degradado_sin_nombre_77" x1="98.38" y1="10.6" x2="98.38" y2="189.9" gradientUnits="userSpaceOnUse"><stop offset="0.4" stop-color="#287dbe"/><stop offset="0.43" stop-color="#2672b2"/><stop offset="0.51" stop-color="#235c98"/><stop offset="0.59" stop-color="#204a83"/><stop offset="0.69" stop-color="#1e3e75"/><stop offset="0.81" stop-color="#1d366d"/><stop offset="1" stop-color="#1d346a"/></linearGradient><linearGradient id="Degradado_sin_nombre_166" x1="59.13" y1="121.02" x2="63.61" y2="128.78" gradientUnits="userSpaceOnUse"><stop offset="0.32" stop-color="#60c1d4"/><stop offset="0.33" stop-color="#5ebfd3"/><stop offset="0.49" stop-color="#48a4c8"/><stop offset="0.66" stop-color="#3791c0"/><stop offset="0.83" stop-color="#2d85bb"/><stop offset="1" stop-color="#2a81b9"/></linearGradient><linearGradient id="Degradado_sin_nombre_166-2" x1="65.69" y1="115.24" x2="71.76" y2="125.76" xlink:href="#Degradado_sin_nombre_166"/><linearGradient id="Degradado_sin_nombre_166-3" x1="74.22" y1="112.08" x2="81.71" y2="125.04" xlink:href="#Degradado_sin_nombre_166"/><linearGradient id="Degradado_sin_nombre_70-2" x1="123.85" y1="89.6" x2="126.53" y2="94.25" xlink:href="#Degradado_sin_nombre_70"/><linearGradient id="Degradado_sin_nombre_70-3" x1="129.09" y1="86.32" x2="135.82" y2="97.98" xlink:href="#Degradado_sin_nombre_70"/><linearGradient id="Degradado_sin_nombre_70-4" x1="135.42" y1="90.2" x2="144.46" y2="105.86" xlink:href="#Degradado_sin_nombre_70"/><linearGradient id="Degradado_sin_nombre_70-5" x1="75.55" y1="48.41" x2="79.81" y2="55.79" xlink:href="#Degradado_sin_nombre_70"/><linearGradient id="Degradado_sin_nombre_70-6" x1="82.78" y1="44.8" x2="87.45" y2="52.89" xlink:href="#Degradado_sin_nombre_70"/><linearGradient id="Degradado_sin_nombre_70-7" x1="90.37" y1="45.88" x2="93.46" y2="51.24" xlink:href="#Degradado_sin_nombre_70"/></defs><g id="Capa_2" data-name="Capa 2"><g id="banner_copia" data-name="banner copia"><path class="cls-1" d="M332.36,86.62c-.57-12.51-1.18-27.51-1.18-40.95h-.35C327.34,57.46,323,70.4,318.41,83.11l-15,41h-14L276,83.48c-4.06-12.73-7.62-25.7-10.34-37.81h-.28c-.49,12.7-1,28.38-1.79,41.55l-2.2,37.94h-16.8l6.18-92.8h24.48l13.14,37.17c3.51,10.63,6.69,22.07,9.06,32.35h.43c2.79-10,6.35-21.92,10.25-32.45l14.24-37.07h24l5.28,92.8H334.16Z"/><path class="cls-1" d="M466.28,77.91c0,29.81-21.06,48.9-49.68,48.9-28.79,0-47.85-20.16-47.85-47C368.75,51,389.25,30.7,418,30.7,447.57,30.7,466.28,50.88,466.28,77.91Zm-78.76,1.34c0,18.53,11.49,33.75,30,33.75s30-14.75,30-34.46c0-17.75-10.65-34-29.9-34S387.52,60.31,387.52,79.25Z"/><path class="cls-1" d="M485.42,125.16V32.36h21.3l26.8,39.9A238.26,238.26,0,0,1,551,103.93l.36-.12c-1.36-12.46-1.5-23.63-1.5-37V32.36H566.4v92.8H547.5L520.44,83.89c-6.75-10.74-13.6-22.08-18.79-32.85l-.49.12c.69,12.5.83,24.45.83,38.38v35.62Z"/><path class="cls-1" d="M608.34,32.36v92.8H590.62V32.36Z"/><path class="cls-1" d="M707.12,122c-4.45,2.23-14.6,4.82-27.57,4.82-32.19,0-52.07-18.88-52.07-47,0-28.78,22.13-49.1,54.46-49.1,12.87,0,22,2.62,25.92,4.68l-4,13.88a52.63,52.63,0,0,0-21.19-4.21c-21.85,0-36.57,12.67-36.57,34,0,18.94,12.78,33.23,36.25,33.23,8,0,16.37-1.55,21.61-3.93Z"/><path class="cls-1" d="M747.82,98.25l-8.89,26.91H720.31l32.83-92.8H776.2L810,125.16H790.53L781,98.25ZM777.75,85,769.3,61.62c-2-5.65-3.64-11.21-5.18-16.23h-.27c-1.46,5.08-2.89,10.7-4.71,16.13L750.94,85Z"/><path class="cls-2" d="M240.5,163.33c-.17-3.8-.36-8.36-.36-12.44H240c-1.06,3.58-2.38,7.51-3.77,11.37l-4.55,12.45h-4.26l-4.07-12.33c-1.23-3.87-2.31-7.81-3.14-11.49h-.08c-.15,3.86-.31,8.62-.55,12.62L218.94,175h-5.1l1.88-28.2h7.44l4,11.3c1.06,3.23,2,6.7,2.75,9.83H230c.85-3.05,1.93-6.66,3.12-9.86l4.32-11.27h7.31l1.61,28.2H241Z"/><path class="cls-2" d="M274.42,164.61c0,7.24-5.59,10.93-11.51,10.93-6.22,0-11.16-4.08-11.16-10.5s4.66-10.87,11.58-10.87C270,154.17,274.42,158.61,274.42,164.61Zm-17.1.28c0,4.09,2.42,6.81,5.77,6.81,3.19,0,5.76-2.46,5.76-6.9,0-3.28-1.72-6.79-5.69-6.79S257.32,161.35,257.32,164.89Z"/><path class="cls-2" d="M280.08,160.84c0-2.37-.07-4.42-.17-6.17h4.71l.26,3.28H285a8,8,0,0,1,7.05-3.78c3.6,0,7.92,2.17,7.92,9.19V175H294.6V164c0-3.21-1.29-5.52-4.39-5.52a4.86,4.86,0,0,0-4.51,3.2,4.48,4.48,0,0,0-.24,1.56V175h-5.38Z"/><path class="cls-2" d="M312.8,148.85a3,3,0,1,1-3-2.85A2.85,2.85,0,0,1,312.8,148.85ZM307.06,175V154.67h5.38V175Z"/><path class="cls-2" d="M325.69,148.71v6h5.21v4h-5.21v8.46c0,2.5.56,4,2.81,4a8.51,8.51,0,0,0,2.21-.25l.11,4.06a12,12,0,0,1-4,.59,6.3,6.3,0,0,1-4.69-1.81c-1.15-1.23-1.65-3.23-1.65-5.78v-9.24h-3.07v-4h3.07V150Z"/><path class="cls-2" d="M357.33,164.61c0,7.24-5.59,10.93-11.51,10.93-6.22,0-11.16-4.08-11.16-10.5s4.66-10.87,11.57-10.87C352.89,154.17,357.33,158.61,357.33,164.61Zm-17.1.28c0,4.09,2.41,6.81,5.77,6.81,3.19,0,5.76-2.46,5.76-6.9,0-3.28-1.72-6.79-5.69-6.79S340.23,161.35,340.23,164.89Z"/><path class="cls-2" d="M363,161.49c0-3,0-5-.17-6.82h4.65l.18,4.14h.14a6.49,6.49,0,0,1,6.06-4.64,4.9,4.9,0,0,1,1.3.13v5a8.12,8.12,0,0,0-1.7-.17,4.74,4.74,0,0,0-5,4,8.13,8.13,0,0,0-.12,1.41V175H363Z"/><path class="cls-2" d="M383.45,166.36c.17,3.4,3.28,5.14,6.88,5.14a17.46,17.46,0,0,0,6.28-1l.8,3.66a20.21,20.21,0,0,1-7.79,1.4c-7.07,0-11.29-4.17-11.29-10.39,0-5.25,3.47-11,10.75-11s9.56,6,9.56,10.1a9.11,9.11,0,0,1-.21,2.09Zm10.1-3.73a4.6,4.6,0,0,0-4.79-4.88,5.35,5.35,0,0,0-5.32,4.88Z"/><path class="cls-2" d="M425.39,164.61c0,7.24-5.59,10.93-11.51,10.93-6.22,0-11.16-4.08-11.16-10.5s4.66-10.87,11.58-10.87C421,154.17,425.39,158.61,425.39,164.61Zm-17.1.28c0,4.09,2.42,6.81,5.77,6.81,3.19,0,5.76-2.46,5.76-6.9,0-3.28-1.72-6.79-5.69-6.79S408.29,161.35,408.29,164.89Z"/><path class="cls-2" d="M462,145.08v24.18c0,2.23.07,4.46.17,5.78h-4.83l-.23-3.49H457a8.08,8.08,0,0,1-7.4,4c-5.17,0-9.57-4.09-9.57-10.39,0-6.72,4.62-11,10.05-11,3.16,0,5.43,1.27,6.43,2.8h.08V145.08Zm-5.38,18.31a7.06,7.06,0,0,0-.13-1.37,5.12,5.12,0,0,0-5.1-3.79c-3.67,0-5.85,2.83-5.85,6.65,0,3.63,2.11,6.4,5.81,6.4a5.23,5.23,0,0,0,5.11-4.05,6.69,6.69,0,0,0,.16-1.57Z"/><path class="cls-2" d="M472.76,166.36c.17,3.4,3.28,5.14,6.88,5.14a17.46,17.46,0,0,0,6.28-1l.8,3.66a20.21,20.21,0,0,1-7.79,1.4c-7.07,0-11.29-4.17-11.29-10.39,0-5.25,3.47-11,10.75-11s9.56,6,9.56,10.1a9.11,9.11,0,0,1-.21,2.09Zm10.1-3.73a4.6,4.6,0,0,0-4.79-4.88,5.35,5.35,0,0,0-5.32,4.88Z"/><path class="cls-2" d="M526.74,174.08a21.09,21.09,0,0,1-8.38,1.46c-9.78,0-15.82-5.74-15.82-14.28,0-8.75,6.72-14.92,16.54-14.92a18.7,18.7,0,0,1,7.88,1.42L525.74,152a15.89,15.89,0,0,0-6.43-1.28c-6.64,0-11.12,3.85-11.12,10.32,0,5.76,3.89,10.1,11,10.1a17.12,17.12,0,0,0,6.56-1.2Z"/><path class="cls-2" d="M544.46,175l-.38-2.33H544a8.37,8.37,0,0,1-6.57,2.83c-4.53,0-6.85-3.12-6.85-6.07,0-5.1,4.63-7.84,13.1-7.78v-.27c0-1.08-.43-3.55-4.5-3.53a12.15,12.15,0,0,0-6,1.65L532,156.1a15.78,15.78,0,0,1,8-1.93c7,0,9,4.3,9,8.81v7.07a29.81,29.81,0,0,0,.33,5Zm-.69-9.9c-4.27-.07-7.85.79-7.85,3.74,0,1.9,1.33,2.87,3.18,2.87a4.73,4.73,0,0,0,4.51-3,3.85,3.85,0,0,0,.16-1.15Z"/><path class="cls-2" d="M556,145.08h5.38v30H556Z"/><path class="cls-2" d="M574.29,148.85a3,3,0,1,1-3-2.85A2.85,2.85,0,0,1,574.29,148.85ZM568.55,175V154.67h5.38V175Z"/><path class="cls-2" d="M601.57,145.08v24.18c0,2.23.06,4.46.16,5.78H596.9l-.22-3.49h-.09a8.07,8.07,0,0,1-7.4,4c-5.17,0-9.57-4.09-9.57-10.39,0-6.72,4.62-11,10.06-11,3.16,0,5.42,1.27,6.42,2.8h.08V145.08Zm-5.39,18.31a6.36,6.36,0,0,0-.13-1.37,5.11,5.11,0,0,0-5.09-3.79c-3.68,0-5.86,2.83-5.86,6.65,0,3.63,2.11,6.4,5.81,6.4a5.25,5.25,0,0,0,5.12-4.05,6.7,6.7,0,0,0,.15-1.57Z"/><path class="cls-2" d="M621.1,175l-.38-2.33h-.14a8.33,8.33,0,0,1-6.56,2.83c-4.54,0-6.86-3.12-6.86-6.07,0-5.1,4.64-7.84,13.1-7.78v-.27c0-1.08-.43-3.55-4.5-3.53a12.14,12.14,0,0,0-6,1.65l-1.08-3.44a15.81,15.81,0,0,1,8-1.93c7,0,9,4.3,9,8.81v7.07a29.67,29.67,0,0,0,.34,5Zm-.69-9.9c-4.27-.07-7.85.79-7.85,3.74,0,1.9,1.33,2.87,3.17,2.87a4.75,4.75,0,0,0,4.52-3,3.85,3.85,0,0,0,.16-1.15Z"/><path class="cls-2" d="M653.1,145.08v24.18c0,2.23.07,4.46.17,5.78h-4.84l-.22-3.49h-.08a8.09,8.09,0,0,1-7.4,4c-5.17,0-9.57-4.09-9.57-10.39,0-6.72,4.62-11,10.05-11,3.16,0,5.43,1.27,6.43,2.8h.08V145.08Zm-5.38,18.31a7.06,7.06,0,0,0-.13-1.37,5.12,5.12,0,0,0-5.1-3.79c-3.67,0-5.85,2.83-5.85,6.65,0,3.63,2.11,6.4,5.81,6.4a5.23,5.23,0,0,0,5.11-4.05,6.69,6.69,0,0,0,.16-1.57Z"/><path class="cls-2" d="M691.17,145.08v24.18c0,2.23.06,4.46.17,5.78H686.5l-.22-3.49h-.08a8.1,8.1,0,0,1-7.41,4c-5.17,0-9.57-4.09-9.57-10.39,0-6.72,4.62-11,10.06-11,3.16,0,5.42,1.27,6.42,2.8h.09V145.08Zm-5.38,18.31a6.37,6.37,0,0,0-.14-1.37,5.11,5.11,0,0,0-5.09-3.79c-3.68,0-5.86,2.83-5.86,6.65,0,3.63,2.12,6.4,5.82,6.4a5.24,5.24,0,0,0,5.11-4.05,6.69,6.69,0,0,0,.16-1.57Z"/><path class="cls-2" d="M702,166.36c.17,3.4,3.27,5.14,6.88,5.14a17.37,17.37,0,0,0,6.27-1l.81,3.66a20.21,20.21,0,0,1-7.79,1.4c-7.07,0-11.3-4.17-11.3-10.39,0-5.25,3.47-11,10.76-11s9.55,6,9.55,10.1a9.23,9.23,0,0,1-.2,2.09Zm10.1-3.73a4.6,4.6,0,0,0-4.79-4.88,5.37,5.37,0,0,0-5.33,4.88Z"/><path class="cls-2" d="M739.47,166.86l-2.7,8.18h-5.66l10-28.2h7L758.37,175h-5.92l-2.9-8.18Zm9.1-4L746,155.73c-.61-1.71-1.11-3.4-1.58-4.93h-.08c-.44,1.54-.88,3.25-1.43,4.9l-2.49,7.14Z"/><path class="cls-2" d="M783,154.67c-.1,1.28-.17,2.87-.17,5.67V171.9c0,4.09-.9,7.39-3.26,9.45s-5.63,2.56-8.48,2.56a16,16,0,0,1-7.85-1.82l1.18-4.09a13.15,13.15,0,0,0,6.64,1.81c3.58,0,6.48-1.78,6.48-6.37v-1.78h-.08a7.83,7.83,0,0,1-6.66,3.24c-5.35,0-9.46-4.06-9.46-9.93,0-6.6,4.72-10.8,10.07-10.8,3.55,0,5.58,1.61,6.64,3.39h.08l.18-2.89Zm-5.55,8.48a5.27,5.27,0,0,0-.15-1.35,4.87,4.87,0,0,0-4.85-3.65c-3.1,0-5.63,2.38-5.63,6.64,0,3.13,1.89,6.17,5.62,6.17a5,5,0,0,0,4.78-3.45,7,7,0,0,0,.23-1.84Z"/><path class="cls-2" d="M809.73,168.88c0,2.49.07,4.53.17,6.16h-4.71l-.25-3.39h-.13a8,8,0,0,1-7.18,3.89c-3.7,0-7.71-2-7.71-9.14V154.67h5.38v10.77c0,3.54,1.25,5.76,4.28,5.76a4.87,4.87,0,0,0,4.48-3,4,4,0,0,0,.29-1.53v-12h5.38Z"/><path class="cls-2" d="M829.29,175l-.38-2.33h-.13a8.37,8.37,0,0,1-6.57,2.83c-4.53,0-6.85-3.12-6.85-6.07,0-5.1,4.63-7.84,13.1-7.78v-.27c0-1.08-.43-3.55-4.5-3.53a12.18,12.18,0,0,0-6,1.65l-1.07-3.44a15.81,15.81,0,0,1,8-1.93c7,0,9,4.3,9,8.81v7.07a30.92,30.92,0,0,0,.33,5Zm-.69-9.9c-4.26-.07-7.85.79-7.85,3.74,0,1.9,1.34,2.87,3.18,2.87a4.76,4.76,0,0,0,4.52-3,3.83,3.83,0,0,0,.15-1.15Z"/><path class="cls-3" d="M68,15.67c.8-.4,6,.74,6.81.88,5.71,1,6.6,1.13,11.92,1.92,2.88.43,5.78,1.23,8.61,1.94,5.88,1.49,12,3.32,17.08,6.65,4.15,2.71,7.57,6.84,6.47,12.09-1.41,6.7-10.46,9.19-16,11.17-7.13,2.52-14.77,4.14-21.63,7.48-5.91,2.88-11.33,7.18-14.4,13-5.14,9.7-1.52,20,6.94,26.28,5,3.71,10.82,5.84,15.21,10.49a10.78,10.78,0,0,1,3,5.18c.61,3.21-1.24,6.49-3.81,8.5-5.81,4.57-13.81,6.05-20.56,8.73-7.63,3-15.66,5.76-21,12.37-6,7.41-6.78,18.86-1.29,26.69,3,4.31,7.54,7.33,12.16,9.85,16.73,9.13,39.16,11.69,55.24,10.82a39.13,39.13,0,0,0,9.94-1.61c4.1-1.16,9.3-2.71,9.72-2.68-14.36-1.18-28.66-4.19-41.9-9.86A26.14,26.14,0,0,1,82,170.37c-2.35-2.36-3.91-5.72-3.38-9,1.55-9.57,16.54-12.81,24.15-15,6.85-2,13.82-3.84,20.08-7.27s11.83-8.69,14-15.47a21.13,21.13,0,0,0-7.72-23.44c-6.37-4.73-15.28-7.14-19.25-14.56a6.16,6.16,0,0,1-.83-3.87,6.62,6.62,0,0,1,1.79-3.15c6.39-7,17-9.35,25.35-13.06s16.62-9.82,18.05-18.77c.91-5.7-1.27-11.59-4.88-16.08s-8.55-7.76-13.67-10.43A85.09,85.09,0,0,0,102.46,11C91.07,10.2,78.42,10.34,68,15.67Z"/><path class="cls-4" d="M82.09,11.36c14.17,2.22,28.65,3.47,41.49,10.72,3.89,2.19,7.57,5,9.8,8.92a16.54,16.54,0,0,1,1.24,13.88c-4.42,11.73-22.28,13.23-32.28,17.6C96.57,65,90.92,67,87.3,72.58A21.09,21.09,0,0,0,85.06,90.2c2,6.29,6.52,11.49,8.08,18,2.09,8.65-3.31,13.77-10.93,16.5-12.7,4.56-27.5,7.82-36.48,18.64A24.09,24.09,0,0,0,42.61,149a21.83,21.83,0,0,0,5.72,23.38c9.26,8.76,20.77,12.47,33.76,15.58,11.25,2.7,32.73,2.08,35.84,1a106.13,106.13,0,0,1-17.65-1.7,80.66,80.66,0,0,1-17.59-5.62c-6.55-3-14.06-6.39-18-12.74-4.85-7.81-1.63-16.32,5.5-21.28C78,142.23,87.23,140.33,96,137c7.39-2.84,16.15-5.61,20.25-13a20.87,20.87,0,0,0,2-13c-1.21-8.39-6.71-15-8.8-23.1-3.26-12.58,16.06-17.72,24.66-21.16,8.16-3.27,17.5-8.4,20.47-17.28,3.6-10.79-4.72-20.93-13.41-26.3C124.69,12.91,102.35,8.76,82.09,11.36Z"/><polygon class="cls-5" points="64.4 128.32 64.4 128.24 64.4 120.96 59.23 120.96 59.23 129.79 59.23 130.4 64.4 128.32"/><polygon class="cls-6" points="66.51 119.92 66.51 114.77 71.71 114.77 71.71 125.78 66.51 127.56 66.51 119.92"/><polygon class="cls-7" points="74.3 115.77 74.3 108.51 79.49 108.5 79.49 123.1 74.3 124.92 74.3 115.77"/><polygon class="cls-8" points="122.61 90.31 126.76 90.31 126.76 94.12 122.61 91.79 122.61 90.31"/><path class="cls-9" d="M129.36,86.16H134V99a6.9,6.9,0,0,0-1-.91c-1.11-.9-1.56-1.15-3.64-2.6Z"/><path class="cls-10" d="M136.11,89.79h4.68V108a26.16,26.16,0,0,0-3.64-5.72c-.34-.41-.69-.8-1-1.16Z"/><path class="cls-11" d="M75.86,48.24h4.67v7.13a28.38,28.38,0,0,0-2.59,1.18c-.76.39-1.46.79-2.08,1.18Z"/><polygon class="cls-12" points="83.13 44.6 87.81 44.6 87.81 52.68 83.13 54.31 83.13 44.6"/><polygon class="cls-13" points="89.88 46.16 94.56 46.16 94.56 50.61 89.88 52.03 89.88 46.16"/><path class="cls-14" d="M158.45,51.87s.52-10.39.61-10.43a78.77,78.77,0,0,1,29.42,41.8c8,27.82-.19,62-24.26,79.57-15,10.94-34.79,14.52-52.53,8.67L107,179.17c-1.68-3.57-9.22-17.62-9.51-20.78,8.22-2.21,17.22-2.84,25.64-4.18L116.77,164c-.39.13,2.72.65,6.88,1.17a59.29,59.29,0,0,0,13,0,52.37,52.37,0,0,0,15.59-5.2c9.56-5,17.19-13.44,22.5-22.81,7.33-12.93,9.54-28.52,6.91-43.15a74.63,74.63,0,0,0-8.09-22.63C169.7,64.32,158.58,52.14,158.45,51.87Z"/><path class="cls-14" d="M38.46,161.48a71.14,71.14,0,0,1-24.94-34.8c-6.33-19.35-6.18-40.35,2.1-59.09A79.28,79.28,0,0,1,52.38,29a75.05,75.05,0,0,1,9.25-3.89,78.32,78.32,0,0,1,8.51-2.37s10.39,7.28,10.26,7.27c-12.17.17-25,5.68-34.69,12.77-14.11,10.34-23.64,26.23-27,43.34-3.51,17.92.25,38.62,10.75,53.72a48.62,48.62,0,0,0,5.35,6.54l3.64,3.63Z"/><circle class="cls-15" cx="98.71" cy="85.64" r="1.56"/><rect class="cls-15" x="94.48" y="87.66" width="1.87" height="4.52" transform="translate(75.9 -39.73) rotate(38.14)"/><circle class="cls-15" cx="102.35" cy="88.76" r="1.56"/><rect class="cls-15" x="98.11" y="90.78" width="1.87" height="4.52" transform="translate(78.6 -41.31) rotate(38.14)"/><circle class="cls-15" cx="109.24" cy="97.13" r="1.56"/><rect class="cls-15" x="103.88" y="97.98" width="1.87" height="4.52" transform="translate(127.79 -42.96) rotate(55.4)"/><circle class="cls-15" cx="111.7" cy="102.78" r="1.56"/><rect class="cls-15" x="105.56" y="102.01" width="1.87" height="4.52" transform="translate(178.68 -26.13) rotate(74.57)"/><circle class="cls-15" cx="112.74" cy="108.5" r="1.56"/><rect class="cls-15" x="106.44" y="106.95" width="1.87" height="4.52" transform="translate(202.64 -10.71) rotate(82.98)"/><circle class="cls-15" cx="113.26" cy="113.69" r="1.56"/><rect class="cls-15" x="106.92" y="111.66" width="1.87" height="4.52" transform="translate(218.03 2.24) rotate(88.04)"/><circle class="cls-15" cx="105.99" cy="92.39" r="1.56"/><rect class="cls-15" x="101.16" y="93.89" width="1.87" height="4.52" transform="translate(101.56 -44.09) rotate(46.5)"/><circle class="cls-16" cx="100.25" cy="100.25" r="99.25"/></g></g></svg>